<svg width="69" height="63" viewBox="0 0 69 63" fill="none" xmlns="http://www.w3.org/2000/svg">
<path fill-rule="evenodd" clip-rule="evenodd" d="M17.7012 54.5442C24.0213 59.6785 31.3224 62.6045 39.1089 62.6045C50.6882 62.6045 61.1995 56.1147 69 45.5442C65.7064 41.0825 61.9311 37.3452 57.7917 34.5198L51.1457 37.8375C52.5741 40.0598 53.4061 42.7049 53.4061 45.5442C53.4061 53.4314 47.0063 59.8241 39.1089 59.8241C32.9727 59.8241 27.7412 55.9621 25.7131 50.54L17.7012 54.5407V54.5442ZM34.1895 46.3104C34.3489 47.347 34.8343 48.3109 35.5866 49.0632C36.5192 49.9958 37.788 50.5192 39.1089 50.5157C41.8581 50.5157 44.0873 48.29 44.0873 45.5442C44.0873 44.1956 43.55 42.9719 42.6763 42.074L34.1929 46.3104H34.1895Z" fill="white"/>
<path d="M19.5113 45.4329L67.9533 22.1461L57.3067 0L51.8082 19.5703L45.2005 5.82086L39.6986 25.391L33.0908 11.6416L27.589 31.2119L20.9812 17.4624L15.4794 37.0327L8.87161 23.2833L0 54.8141L12.1096 48.9932L19.5113 45.4363V45.4329Z" fill="white"/>
</svg>
