<svg width="65" height="54" viewBox="0 0 65 54" fill="none" xmlns="http://www.w3.org/2000/svg">
<path fill-rule="evenodd" clip-rule="evenodd" d="M4.46841 23.2466C21.9167 15.626 33.5516 10.602 39.3732 8.17466C55.9949 1.24409 59.4487 0.0401778 61.6999 0.000423866C62.195 -0.00831957 63.3021 0.114689 64.0192 0.698004C64.6247 1.19054 64.7913 1.8559 64.871 2.32288C64.9507 2.78986 65.05 3.85366 64.9711 4.68488C64.0704 14.1723 60.1729 37.1958 58.1901 47.8218C57.3511 52.3181 55.6991 53.8257 54.0997 53.9732C50.6239 54.2939 47.9846 51.6706 44.6182 49.4584C39.3504 45.9968 36.3744 43.8419 31.2611 40.464C25.3517 36.5603 29.1825 34.4147 32.5502 30.9082C33.4316 29.9906 48.7458 16.0268 49.0422 14.76C49.0793 14.6016 49.1137 14.0111 48.7637 13.6993C48.4138 13.3874 47.8972 13.4941 47.5245 13.5789C46.9962 13.6991 38.5808 19.275 22.2783 30.3067C19.8896 31.951 17.726 32.7522 15.7875 32.7102C13.6505 32.6639 9.53965 31.4989 6.48367 30.5031C2.73539 29.2817 -0.243662 28.6359 0.0157469 26.5616C0.150863 25.4811 1.63508 24.3761 4.46841 23.2466Z" fill="white"/>
</svg>
